# xmcd
# 
# Track frame offsets:
#     150
#     63549
#     79478
#     142227
#     147788
#     189574
#     233744
#     284174
# 
# Disc length: 4442
# 
# Revision: 27
# Processed by: cddbd v1.5.2PL0 Copyright (c) Steve Scherf et al.
# Submitted via: BonkEnc v1.0
# 
DISCID=82115808
DTITLE=Tool - Salival
DYEAR=2000
DGENRE=Progressive Rock
TTITLE0=Third Eye (Live)
TTITLE1=Part of Me (Live)
TTITLE2=Pushit (Live)
TTITLE3=Message to Harry Manback (Part 2)
TTITLE4=Merkaba
TTITLE5=You Lied (Live)
TTITLE6=No Quarter
TTITLE7=LAMC - Maynard's Dick
EXTD=
EXTT0=
EXTT1=
EXTT2=
EXTT3=
EXTT4=
EXTT5=
EXTT6=
EXTT7=
PLAYORDER=
